#!OML:ASF C:\Vicon Data\Big\jianyuan-12\jianyuan\Session 1\Capture.male.ASF
:FULLY-SPECIFIED
:DEGREES
1
root -7.733500 16.898400 -23.999400 7.521642 -1.739492 11.829824
lowerback -10.375300 -3.598320 -10.808500 
upperback 2.245600 -3.193260 -1.367050 
thorax 8.825530 -2.041560 4.013660 
lowerneck -0.327834 -9.625590 -8.529750 
upperneck 8.482360 -13.345300 9.238420 
head 3.777690 -6.543410 3.597270 
rclavicle 0.000000 0.000000 
rhumerus -49.000800 -37.631100 -65.896200 
rradius 30.273300 
rwrist 51.474500 
rhand -25.221100 -1.757960 
rfingers 0.000000 
rthumb 1.298000 -31.733800 
lclavicle 0.000000 0.000000 
lhumerus -15.528400 20.548300 83.347200 
lradius 37.698800 
lwrist -36.969900 
lhand -12.037200 4.272150 
lfingers 0.000000 
lthumb 14.021100 33.779200 
rfemur -31.914300 -0.073119 12.127500 
rtibia 20.057500 
rfoot -15.953300 -17.120800 
rtoes -9.459560 
lfemur 6.139890 2.366850 -32.309700 
ltibia 14.894400 
lfoot -20.851500 6.296420 
ltoes -30.711300 
2
root -7.754217 16.915591 -23.844321 7.412913 -1.708874 11.755396
lowerback -10.489183 -3.657714 -10.598741 
upperback 2.205402 -3.295378 -1.312958 
thorax 8.851310 -2.082179 3.931399 
lowerneck -0.283806 -9.552889 -8.721065 
upperneck 8.481708 -13.253197 9.329466 
head 3.780528 -6.501942 3.661656 
rclavicle 0.000000 0.000000 
rhumerus -49.362584 -37.685272 -65.487109 
rradius 30.172422 
rwrist 51.796365 
rhand -25.397809 -1.831100 
rfingers 0.000000 
rthumb 1.127360 -31.807879 
lclavicle 0.000000 0.000000 
lhumerus -16.050101 20.501438 83.278910 
lradius 37.765727 
lwrist -37.129516 
lhand -11.977715 4.191447 
lfingers 0.000000 
lthumb 14.078464 33.694581 
rfemur -31.636073 -0.243151 12.381545 
rtibia 20.516147 
rfoot -15.253442 -18.289663 
rtoes -10.670023 
lfemur 6.620531 1.782017 -32.119305 
ltibia 15.428816 
lfoot -20.709501 6.056948 
ltoes -29.266418 
3
root -7.764033 16.923837 -23.768087 7.356252 -1.649286 11.722353
lowerback -10.548028 -3.695675 -10.442220 
upperback 2.203685 -3.357718 -1.341757 
thorax 8.879831 -2.104269 3.798171 
lowerneck -0.281925 -9.524404 -8.667556 
upperneck 8.479014 -13.215411 9.318932 
head 3.771607 -6.482105 3.653355 
rclavicle 0.000000 0.000000 
rhumerus -49.592003 -37.872746 -65.247258 
rradius 30.083423 
rwrist 52.166159 
rhand -25.404728 -1.735108 
rfingers 0.000000 
rthumb 1.120667 -31.711922 
lclavicle 0.000000 0.000000 
lhumerus -16.245118 20.581763 83.165242 
lradius 37.767763 
lwrist -37.201688 
lhand -11.988650 4.208201 
lfingers 0.000000 
lthumb 14.067945 33.712028 
rfemur -31.439194 -0.359951 12.486706 
rtibia 20.603583 
rfoot -15.025126 -18.516262 
rtoes -10.534905 
lfemur 6.783926 1.723913 -31.951956 
ltibia 15.783762 
lfoot -20.523215 5.713109 
ltoes -28.465664 
4
root -7.773833 16.934467 -23.685383 7.334514 -1.630721 11.599213
lowerback -10.738286 -3.706025 -10.217018 
upperback 2.218358 -3.381898 -1.310211 
thorax 8.995537 -2.110557 3.692262 
lowerneck -0.227052 -9.527674 -8.583305 
upperneck 8.379881 -13.209345 9.202732 
head 3.718904 -6.483805 3.611375 
rclavicle 0.000000 0.000000 
rhumerus -49.756941 -37.968672 -65.062976 
rradius 30.063644 
rwrist 52.160518 
rhand -25.438817 -1.659193 
rfingers 0.000000 
rthumb 1.087773 -31.636184 
lclavicle 0.000000 0.000000 
lhumerus -16.429000 20.600055 83.182357 
lradius 37.801454 
lwrist -37.033990 
lhand -12.029834 4.261121 
lfingers 0.000000 
lthumb 14.028304 33.767744 
rfemur -31.222666 -0.410240 12.672449 
rtibia 20.672173 
rfoot -14.918484 -18.339512 
rtoes -9.988428 
lfemur 6.929996 1.592108 -31.738945 
ltibia 16.190723 
lfoot -20.357480 5.575875 
ltoes -27.892861 
5
root -7.782339 16.944188 -23.596931 7.311980 -1.619034 11.510771
lowerback -10.972496 -3.722837 -10.054350 
upperback 2.226409 -3.403024 -1.260676 
thorax 9.134763 -2.119547 3.638819 
lowerneck -0.183804 -9.531618 -8.614933 
upperneck 8.364311 -13.208820 9.126786 
head 3.704180 -6.488633 3.595951 
rclavicle 0.000000 0.000000 
rhumerus -49.919275 -37.982025 -64.872811 
rradius 30.046504 
rwrist 52.146411 
rhand -25.454910 -1.741143 
rfingers 0.000000 
rthumb 1.072212 -31.718229 
lclavicle 0.000000 0.000000 
lhumerus -16.652425 20.736062 83.209064 
lradius 37.756988 
lwrist -37.096683 
lhand -12.061999 4.223543 
lfingers 0.000000 
lthumb 13.997277 33.732330 
rfemur -31.031294 -0.544416 12.835423 
rtibia 20.833113 
rfoot -14.752600 -17.775935 
rtoes -9.802871 
lfemur 7.119076 1.311571 -31.622714 
ltibia 16.566779 
lfoot -20.248073 5.621860 
ltoes -27.240196 
6
root -7.792386 16.948419 -23.513298 7.255786 -1.621710 11.419998
lowerback -11.113406 -3.736558 -9.922284 
upperback 2.227641 -3.428722 -1.208705 
thorax 9.215308 -2.130052 3.609057 
lowerneck -0.154610 -9.539717 -8.618560 
upperneck 8.392051 -13.215238 9.040132 
head 3.702876 -6.495202 3.571148 
rclavicle 0.000000 0.000000 
rhumerus -50.028584 -37.963703 -64.714415 
rradius 30.002232 
rwrist 52.146764 
rhand -25.394199 -1.814638 
rfingers 0.000000 
rthumb 1.130819 -31.791413 
lclavicle 0.000000 0.000000 
lhumerus -16.920991 20.725878 83.203651 
lradius 37.748390 
lwrist -36.944878 
lhand -11.928493 4.139340 
lfingers 0.000000 
lthumb 14.125899 33.639147 
rfemur -30.882819 -0.677808 13.010832 
rtibia 21.073898 
rfoot -14.443563 -17.039483 
rtoes -9.524115 
lfemur 7.287271 1.256021 -31.472549 
ltibia 16.910397 
lfoot -19.933601 5.704360 
ltoes -27.416005 
7
root -7.804240 16.948786 -23.437821 7.198425 -1.655689 11.298973
lowerback -11.188362 -3.719934 -9.745824 
upperback 2.226715 -3.427474 -1.174713 
thorax 9.246650 -2.122841 3.544494 
lowerneck -0.116487 -9.558716 -8.556954 
upperneck 8.376653 -13.236392 8.956757 
head 3.684315 -6.507830 3.538031 
rclavicle 0.000000 0.000000 
rhumerus -50.104408 -37.987622 -64.630047 
rradius 29.993377 
rwrist 51.865913 
rhand -25.252000 -1.783144 
rfingers 0.000000 
rthumb 1.268178 -31.759117 
lclavicle 0.000000 0.000000 
lhumerus -17.142101 20.668348 83.201343 
lradius 37.746163 
lwrist -36.741989 
lhand -11.807293 4.087179 
lfingers 0.000000 
lthumb 14.242719 33.578814 
rfemur -30.786065 -0.707064 13.206238 
rtibia 21.360553 
rfoot -14.034915 -16.416082 
rtoes -8.659333 
lfemur 7.353289 1.447798 -31.254477 
ltibia 17.276927 
lfoot -19.403267 5.822590 
ltoes -28.625982 
8
root -7.815912 16.947743 -23.365892 7.171108 -1.687697 11.154798
lowerback -11.273631 -3.691021 -9.524316 
upperback 2.222212 -3.415214 -1.147065 
thorax 9.274588 -2.107425 3.450019 
lowerneck -0.098598 -9.571102 -8.540098 
upperneck 8.351631 -13.251773 8.939207 
head 3.672958 -6.516362 3.530715 
rclavicle 0.000000 0.000000 
rhumerus -50.234123 -38.104027 -64.496659 
rradius 29.988859 
rwrist 51.620027 
rhand -25.153128 -1.681323 
rfingers 0.000000 
rthumb 1.363690 -31.656715 
lclavicle 0.000000 0.000000 
lhumerus -17.313922 20.812095 83.198994 
lradius 37.683994 
lwrist -36.899634 
lhand -11.836461 4.115119 
lfingers 0.000000 
lthumb 14.214634 33.608696 
rfemur -30.721219 -0.681054 13.417385 
rtibia 21.652713 
rfoot -13.529724 -16.031207 
rtoes -7.406683 
lfemur 7.273439 1.720887 -31.015299 
ltibia 17.763090 
lfoot -18.768460 6.053436 
ltoes -30.718894 
9
root -7.828175 16.946154 -23.294079 7.162373 -1.691059 10.946350
lowerback -11.367132 -3.688592 -9.299845 
upperback 2.211748 -3.445455 -1.053071 
thorax 9.310883 -2.115037 3.416248 
lowerneck -0.128819 -9.553974 -8.612579 
upperneck 8.354337 -13.226064 8.944450 
head 3.681584 -6.504978 3.543071 
rclavicle 0.000000 0.000000 
rhumerus -50.347087 -38.182842 -64.277099 
rradius 29.924956 
rwrist 51.699931 
rhand -25.174422 -1.596705 
rfingers 0.000000 
rthumb 1.343098 -31.572236 
lclavicle 0.000000 0.000000 
lhumerus -17.551447 21.024709 83.198786 
lradius 37.643219 
lwrist -37.078193 
lhand -11.877435 4.193506 
lfingers 0.000000 
lthumb 14.175112 33.689884 
rfemur -30.630720 -0.660402 13.710605 
rtibia 21.889777 
rfoot -12.970690 -15.794839 
rtoes -6.123994 
lfemur 7.061285 1.948589 -30.721054 
ltibia 18.463417 
lfoot -18.142831 6.354237 
ltoes -33.098207 
